<?xml version="1.0" encoding="utf-8"?>
<!-- Generator: Adobe Illustrator 21.0.0, SVG Export Plug-In . SVG Version: 6.00 Build 0)  -->
<svg version="1.1" id="Livello_1" xmlns="http://www.w3.org/2000/svg" xmlns:xlink="http://www.w3.org/1999/xlink" x="0px" y="0px"
	 viewBox="0 0 595.3 149.1" style="enable-background:new 0 0 595.3 149.1;" xml:space="preserve">
<style type="text/css">
	.st0{fill:#1E1313;}
</style>
<path class="st0" d="M29.5,114.1c-4.3,0-8-0.7-11.3-2.2s-5.9-3.5-8.1-6.1c-2.1-2.6-3.7-5.6-4.8-9.1s-1.6-7.2-1.6-11.2v-24
	c0-3.9,0.5-7.6,1.4-11C6,47,7.5,44,9.6,41.4s4.8-4.6,8-6.2c3.2-1.5,7.2-2.3,11.8-2.3s8.6,0.8,11.8,2.3s5.9,3.6,8,6.2
	c2.1,2.6,3.6,5.6,4.5,9.1s1.4,7.2,1.4,11v24c0,4-0.5,7.7-1.6,11.2s-2.7,6.6-4.8,9.1c-2.1,2.6-4.8,4.6-8.1,6.1S33.8,114.1,29.5,114.1
	z M29.5,41.6c-3.1,0-5.7,0.5-7.8,1.5s-3.9,2.3-5.2,4s-2.3,3.8-2.9,6.2c-0.6,2.4-0.9,5.1-0.9,8.1v24c0,5.9,1.4,10.7,4.1,14.4
	c2.7,3.7,7,5.5,12.7,5.5c5.8,0,10-1.8,12.7-5.5s4.1-8.5,4.1-14.4v-24c0-3-0.3-5.7-0.9-8.1c-0.6-2.4-1.6-4.5-2.9-6.2
	c-1.3-1.7-3.1-3.1-5.2-4C35.2,42.1,32.6,41.6,29.5,41.6z"/>
<path class="st0" d="M117.7,56.4c0,6-1.6,10.8-4.6,14.3c-3.1,3.6-7.3,5.9-12.7,6.9l17.9,29.5c0.4,0.7,0.6,1.6,0.6,2.6
	c0,1.2-0.6,2.2-1.7,3c-1.2,0.8-2.2,1.2-3.1,1.2c-1.6,0-2.9-0.7-3.7-2.1L90.5,78.2H77.6v31.1c0,1.3-0.4,2.4-1.3,3.3s-2,1.4-3.2,1.4
	s-2.2-0.5-3.1-1.4s-1.3-2-1.3-3.3v-70c0-1.5,0.5-2.8,1.5-3.8s2.2-1.6,3.6-1.6h19.5c4.6,0,8.5,0.7,11.6,2s5.6,3,7.5,5.1
	s3.3,4.5,4.1,7.2C117.3,50.9,117.7,53.6,117.7,56.4z M108.8,56.4c0-1.6-0.2-3.3-0.7-4.9c-0.4-1.6-1.3-3.1-2.4-4.4
	c-1.2-1.3-2.8-2.3-4.9-3.1s-4.7-1.2-8-1.2H77.6v26.9h15.9c4.9,0,8.7-1.1,11.3-3.4C107.5,64,108.8,60.7,108.8,56.4z"/>
<path class="st0" d="M164.8,91.5c0-1.8-0.2-3.3-0.6-4.6c-0.4-1.3-0.9-2.4-1.5-3.3s-1.3-1.6-2.1-2.1s-1.5-1-2.2-1.3
	c-1.8-0.9-3.8-1.7-5.9-2.4c-2.1-0.7-4.3-1.5-6.4-2.3c-2.2-0.8-4.3-1.7-6.3-2.7s-3.8-2.3-5.4-3.9c-1.6-1.6-2.9-3.5-3.8-5.8
	c-0.9-2.3-1.4-5.1-1.4-8.3c0-6.8,2-12.1,6.1-16c4-3.9,9.6-5.8,16.6-5.8c1.4,0,3.2,0.1,5.4,0.3s4.3,0.6,6.3,1.2
	c2.1,0.6,3.8,1.3,5.3,2.3s2.2,2.2,2.2,3.8c0,1.1-0.4,2.1-1.2,3s-1.9,1.3-3.3,1.3c-0.9,0-1.8-0.2-2.6-0.5s-1.8-0.7-2.9-1.1
	c-1.1-0.4-2.3-0.7-3.7-1.1c-1.4-0.3-3-0.5-4.9-0.5c-1.8,0-3.5,0.2-5.2,0.6c-1.7,0.4-3.2,1.1-4.5,2s-2.4,2.2-3.1,3.8
	c-0.8,1.6-1.2,3.6-1.2,6.1c0,1.9,0.2,3.4,0.7,4.7c0.4,1.3,1,2.3,1.6,3.2s1.3,1.6,2.1,2.1c0.7,0.5,1.5,0.9,2.1,1.2
	c1.8,0.9,3.8,1.7,5.9,2.5c2.1,0.7,4.3,1.5,6.4,2.3c2.2,0.8,4.3,1.7,6.3,2.7c2.1,1,3.9,2.3,5.4,3.9c1.6,1.6,2.8,3.5,3.8,5.8
	c0.9,2.2,1.4,5,1.4,8.3c0,3.7-0.6,7-1.8,9.9s-3,5.3-5.2,7.3s-4.8,3.5-7.8,4.5s-6.2,1.6-9.7,1.6c-1.8,0-3.9-0.1-6.3-0.4
	c-2.4-0.3-4.6-0.8-6.8-1.5c-2.1-0.7-3.9-1.5-5.4-2.6c-1.5-1-2.2-2.3-2.2-3.8c0-1.1,0.4-2.1,1.2-3s1.7-1.3,2.9-1.3
	c0.7,0,1.6,0.2,2.7,0.6c1,0.4,2.2,0.9,3.6,1.3c1.3,0.5,2.9,0.9,4.6,1.3c1.7,0.4,3.7,0.6,5.8,0.6c5,0,8.8-1.2,11.3-3.6
	C163.5,99.4,164.8,96,164.8,91.5z"/>
<path class="st0" d="M209.8,114.1c-4.3,0-8-0.7-11.3-2.2s-5.9-3.5-8.1-6.1c-2.1-2.6-3.7-5.6-4.8-9.1s-1.6-7.2-1.6-11.2v-24
	c0-3.9,0.5-7.6,1.4-11c0.9-3.5,2.4-6.5,4.5-9.1s4.8-4.6,8-6.2c3.2-1.5,7.2-2.3,11.8-2.3s8.6,0.8,11.8,2.3s5.9,3.6,8,6.2
	c2.1,2.6,3.6,5.6,4.5,9.1s1.4,7.2,1.4,11v24c0,4-0.5,7.7-1.6,11.2s-2.7,6.6-4.8,9.1c-2.1,2.6-4.8,4.6-8.1,6.1
	C217.8,113.3,214.1,114.1,209.8,114.1z M209.8,41.6c-3.1,0-5.7,0.5-7.8,1.5s-3.9,2.3-5.2,4s-2.3,3.8-2.9,6.2
	c-0.6,2.4-0.9,5.1-0.9,8.1v24c0,5.9,1.4,10.7,4.1,14.4c2.7,3.7,7,5.5,12.7,5.5c5.8,0,10-1.8,12.7-5.5s4.1-8.5,4.1-14.4v-24
	c0-3-0.3-5.7-0.9-8.1c-0.6-2.4-1.6-4.5-2.9-6.2c-1.3-1.7-3.1-3.1-5.2-4C215.5,42.1,212.9,41.6,209.8,41.6z"/>
<path class="st0" d="M289.8,108.6c0,1.3-0.4,2.3-1.2,3.1c-0.8,0.8-1.8,1.2-3,1.2H254c-1.3,0-2.5-0.5-3.5-1.5s-1.5-2.2-1.5-3.6V37.3
	c0-1.2,0.4-2.2,1.3-3.1c0.9-0.9,1.9-1.3,3.2-1.3s2.3,0.4,3.2,1.3c0.9,0.9,1.3,1.9,1.3,3.1v67h27.7c1.1,0,2.1,0.4,3,1.2
	C289.4,106.4,289.8,107.4,289.8,108.6z"/>
<path class="st0" d="M299.1,37.3c0-1.2,0.4-2.2,1.3-3.1c0.9-0.9,1.9-1.3,3.2-1.3c1.3,0,2.3,0.4,3.2,1.3c0.9,0.9,1.3,1.9,1.3,3.1
	v72.3c0,1.2-0.4,2.2-1.3,3.1s-1.9,1.3-3.2,1.3c-1.3,0-2.3-0.4-3.2-1.3c-0.9-0.9-1.3-1.9-1.3-3.1V37.3z"/>
<path class="st0" d="M370.4,114.1c-0.9,0-1.8-0.2-2.6-0.7c-0.9-0.4-1.5-1.1-2-1.9l-32.3-59.7v57.7c0,1.3-0.4,2.4-1.3,3.2
	c-0.9,0.9-2,1.3-3.3,1.3s-2.3-0.4-3.1-1.3c-0.8-0.9-1.2-2-1.2-3.2V37.8c0-1.4,0.4-2.6,1.3-3.5s2.1-1.4,3.5-1.4c1,0,1.9,0.2,2.7,0.7
	c0.9,0.5,1.5,1.1,2,2l32.3,59.6V37.4c0-1.3,0.4-2.4,1.3-3.2c0.9-0.9,2-1.3,3.2-1.3c1.3,0,2.3,0.4,3.1,1.3c0.8,0.9,1.2,2,1.2,3.2
	v71.7c0,1.3-0.4,2.5-1.3,3.5C373.1,113.6,371.9,114.1,370.4,114.1z"/>
<path class="st0" d="M394.8,110.7c-0.4,1-1,1.9-1.8,2.5s-1.6,0.9-2.5,0.9c-1.3,0-2.4-0.4-3.3-1.2c-0.9-0.8-1.4-1.9-1.4-3.2
	c0-0.2,0-0.5,0.1-0.9c0-0.4,0.1-0.6,0.2-0.8l21.8-69.1c0.5-1.7,1.2-3.1,2.1-4.3c0.9-1.1,2.1-1.7,3.8-1.7c1.7,0,3,0.6,3.8,1.7
	c0.8,1.1,1.5,2.5,2.1,4.3l21.8,69.1c0.1,0.2,0.1,0.4,0.2,0.8c0,0.4,0.1,0.7,0.1,0.9c0,1.3-0.4,2.4-1.3,3.2c-0.9,0.8-2,1.2-3.4,1.2
	c-0.8,0-1.7-0.3-2.6-0.9s-1.5-1.4-1.8-2.5l-4.8-15.6h-28.3L394.8,110.7z M402.2,86.4h23.1l-11.5-38L402.2,86.4z"/>
<path class="st0" d="M529,108.7c0,1.2-0.4,2.2-1.2,3s-1.9,1.2-3.1,1.2h-36.9c-1.3,0-2.4-0.4-3.3-1.3s-1.3-2-1.3-3.4
	c0-0.7,0-1.5,0.1-2.3s0.3-1.5,0.6-2.1c1.5-3.6,3.4-6.9,5.8-10s5-6.1,7.7-8.9c2.8-2.8,5.6-5.5,8.4-8.2s5.5-5.4,7.8-8.2
	c1.6-1.9,3.1-4,4.3-6.3c1.2-2.4,1.8-5,1.8-7.9c0-4.1-1.2-7.5-3.5-10.3s-5.8-4.1-10.4-4.1c-2.2,0-4.1,0.2-5.8,0.6
	c-1.7,0.4-3.3,0.9-4.8,1.6c-1.4,0.6-2.6,1.3-3.6,2s-2,1.1-3.1,1.1c-1,0-2-0.4-2.9-1.1c-0.9-0.7-1.3-1.8-1.3-3c0-0.9,0.2-1.7,0.7-2.4
	s1.2-1.3,2.2-1.9c2.9-1.9,5.9-3.2,8.9-3.9s6.3-1.1,9.9-1.1s6.8,0.6,9.5,1.7c2.8,1.1,5.1,2.7,7.1,4.6c1.9,1.9,3.4,4.2,4.4,6.8
	s1.5,5.4,1.5,8.3c0,4.6-0.8,8.6-2.3,11.9s-3.5,6.2-5.8,8.9c-2.3,2.6-4.7,5.1-7.3,7.5c-2.5,2.4-5,4.8-7.4,7.2
	c-2.4,2.4-4.6,4.9-6.7,7.5s-3.8,5.4-5.3,8.3h30.8c1.3,0,2.3,0.4,3.1,1.2C528.6,106.5,529,107.5,529,108.7z"/>
<path class="st0" d="M586.9,91.1c0,3.3-0.6,6.3-1.8,9.1c-1.2,2.8-2.9,5.2-5.1,7.3c-2.2,2.1-4.8,3.7-7.8,4.8c-3,1.2-6.4,1.7-10,1.7
	s-6.9-0.6-9.9-1.7s-5.7-2.7-7.9-4.6c-2.2-2-4-4.3-5.2-7.1c-1.2-2.8-1.8-5.8-1.8-9.1c0-5,1.3-9.1,4-12.4c2.6-3.2,5.9-5.9,9.8-8
	c-3.1-1.9-5.8-4.4-7.8-7.3c-2.1-3-3.1-6.6-3.1-10.8c0-3.1,0.6-5.8,1.7-8.3c1.2-2.5,2.7-4.6,4.8-6.3c2-1.8,4.3-3.1,7-4
	c2.6-0.9,5.5-1.4,8.5-1.4c3.1,0,5.9,0.5,8.6,1.5c2.7,1,5,2.3,7,4.1s3.5,3.8,4.6,6.3c1.1,2.4,1.7,5.1,1.7,8c0,3.8-1,7.2-2.9,10.1
	s-4.6,5.5-8,7.6c3.9,2.1,7.2,4.8,9.8,8.1C585.6,81.8,586.9,86,586.9,91.1z M578.1,91c0-2.3-0.5-4.4-1.4-6.2
	c-0.9-1.8-2.1-3.3-3.6-4.7c-1.5-1.3-3.2-2.4-5.2-3.2c-1.9-0.9-4-1.5-6.1-1.8c-2.2,0.4-4.2,1.1-6.1,2.1c-1.9,0.9-3.6,2.1-5,3.4
	s-2.5,2.9-3.4,4.7c-0.8,1.8-1.2,3.7-1.2,5.8c0,2.2,0.4,4.1,1.2,5.9s1.9,3.3,3.4,4.6c1.4,1.3,3.1,2.3,5.1,3.1c2,0.7,4.1,1.1,6.3,1.1
	c2.3,0,4.4-0.4,6.4-1.1c1.9-0.7,3.6-1.8,5-3.1c1.4-1.3,2.5-2.9,3.3-4.8C577.7,95,578.1,93.1,578.1,91z M575.4,53.2
	c0-1.8-0.3-3.5-1-5s-1.6-2.8-2.8-3.9c-1.2-1.1-2.6-1.9-4.2-2.5c-1.6-0.6-3.3-0.9-5.2-0.9s-3.6,0.3-5.3,0.9c-1.6,0.6-3.1,1.4-4.3,2.5
	s-2.1,2.4-2.8,3.9s-1,3.2-1,5c0,1.9,0.4,3.7,1.1,5.2c0.7,1.5,1.7,2.9,3,4c1.2,1.2,2.7,2.1,4.3,2.9s3.4,1.3,5.2,1.6
	c3.6-0.8,6.6-2.4,9.2-4.8C574.1,59.8,575.4,56.8,575.4,53.2z"/>
<g>
	<rect x="477.9" y="1.2" class="st0" width="113.6" height="9.3"/>
</g>
<g>
	<rect x="477.9" y="138.6" class="st0" width="113.6" height="9.3"/>
</g>
</svg>
